<svg width="21" height="20" viewBox="0 0 21 20" fill="none" xmlns="http://www.w3.org/2000/svg">
<path d="M6.17788 12.9885H15.4879C15.6527 12.9884 15.8138 12.9395 15.9508 12.848C16.0878 12.7564 16.1946 12.6263 16.2576 12.474C16.3207 12.3218 16.3372 12.1542 16.305 11.9926C16.2729 11.831 16.1936 11.6825 16.077 11.566L11.422 6.91098C11.2658 6.75475 11.0539 6.66699 10.8329 6.66699C10.6119 6.66699 10.4 6.75475 10.2437 6.91098L5.58872 11.566C5.47221 11.6825 5.39287 11.831 5.36073 11.9926C5.32859 12.1542 5.34509 12.3218 5.40815 12.474C5.47121 12.6263 5.57799 12.7564 5.715 12.848C5.85201 12.9395 6.01309 12.9884 6.17788 12.9885Z" fill="#3E4554"/>
</svg>
